<?xml version="1.0" standalone="no"?>
<!DOCTYPE svg PUBLIC "-//W3C//DTD SVG 20010904//EN"
 "http://www.w3.org/TR/2001/REC-SVG-20010904/DTD/svg10.dtd">
<svg version="1.0" xmlns="http://www.w3.org/2000/svg"
 width="500.000000pt" height="500.000000pt" viewBox="0 0 500.000000 500.000000"
 preserveAspectRatio="xMidYMid meet">

<g transform="translate(0.000000,500.000000) scale(0.100000,-0.100000)"
fill="#000000" stroke="none">
<path d="M2548 4900 c-19 -22 -35 -30 -60 -30 -29 0 -43 -9 -91 -60 -45 -49
-62 -60 -87 -60 -23 0 -39 -9 -58 -30 -20 -22 -35 -30 -60 -30 -29 0 -45 -11
-107 -74 -56 -59 -74 -83 -78 -113 -4 -24 -16 -46 -32 -58 -22 -19 -25 -28
-25 -88 0 -55 -4 -70 -21 -86 -26 -24 -36 -34 -60 -60 -13 -15 -31 -21 -60
-21 -33 0 -42 -4 -46 -20 -3 -12 -18 -27 -34 -36 -16 -8 -29 -21 -29 -29 0 -8
-13 -21 -30 -30 -16 -9 -30 -22 -30 -30 0 -7 -13 -23 -30 -35 -24 -17 -30 -29
-30 -57 0 -26 -7 -41 -30 -61 -29 -26 -30 -29 -30 -120 0 -92 -1 -95 -31 -123
l-30 -28 -6 -438 -5 -438 -23 -20 c-24 -20 -24 -20 -31 -364 l-7 -343 -25 -23
-24 -23 1 -218 c1 -138 5 -220 11 -222 30 -10 40 -36 40 -98 0 -61 2 -67 33
-95 32 -29 32 -31 33 -126 1 -83 4 -99 21 -113 32 -25 43 -55 43 -110 0 -45 4
-56 30 -80 28 -26 30 -33 30 -97 0 -66 2 -70 30 -92 l31 -22 -2 -189 -2 -189
75 -76 c66 -65 80 -75 111 -75 28 0 40 -6 56 -28 l20 -28 640 -3 641 -3 135
137 135 136 0 254 0 254 30 21 c23 17 30 29 30 56 0 22 7 41 21 53 12 10 26
24 32 31 7 7 24 24 38 38 21 22 27 40 32 97 5 50 12 73 24 82 10 7 23 17 28
23 6 7 35 37 66 69 46 47 57 64 62 101 4 31 13 51 31 65 22 18 25 30 31 123 7
94 10 104 33 123 l26 20 -2 456 -1 455 -26 24 -25 23 -1 218 c-3 431 0 396
-34 431 -120 122 -109 114 -186 120 -58 4 -73 9 -85 27 -8 12 -25 27 -39 33
-14 6 -25 17 -25 25 0 7 -13 24 -30 39 l-30 26 0 129 0 130 -30 26 -30 27 0
158 0 158 -30 29 c-27 26 -30 35 -30 90 0 56 -3 64 -32 92 -18 16 -49 48 -68
70 -25 28 -46 41 -72 46 -29 4 -54 23 -118 85 -69 70 -80 85 -80 115 0 42 -10
47 -91 47 -53 0 -60 3 -81 30 -22 30 -23 30 -118 30 -94 0 -96 -1 -122 -30z
m125 -287 c15 -16 36 -36 47 -45 16 -15 20 -31 20 -82 0 -59 2 -66 28 -84 l27
-20 5 -323 5 -323 24 -12 c13 -7 28 -20 33 -28 20 -35 28 -12 28 80 0 91 -1
97 -25 116 -25 19 -25 22 -25 158 l0 139 30 21 c24 17 30 28 30 60 0 50 21 70
73 70 36 0 46 -6 89 -51 l48 -51 0 -93 c0 -90 1 -94 28 -113 l27 -20 5 -255 5
-255 28 -22 27 -21 0 -179 c0 -146 -3 -180 -15 -190 -18 -15 -20 -89 -2 -94 6
-3 24 -7 38 -10 14 -3 31 -17 37 -31 15 -33 27 -32 42 5 7 16 21 32 31 35 16
6 19 17 19 80 0 56 4 77 16 87 9 7 30 28 47 46 26 27 38 32 77 32 79 0 79 -1
79 -259 1 -123 3 -244 6 -270 3 -25 1 -113 -5 -196 -33 -492 -29 -467 -69
-434 l-25 20 19 54 c30 91 4 181 -46 155 -35 -19 -68 -12 -84 20 -9 17 -22 30
-30 30 -7 0 -23 13 -35 30 -17 24 -29 30 -59 30 -46 0 -56 11 -66 67 -5 35 -3
45 14 60 47 42 101 95 101 100 0 3 -11 14 -25 25 -22 17 -25 27 -25 87 0 72
-10 91 -46 91 -53 0 -54 -2 -54 -149 0 -93 -4 -141 -12 -149 -7 -7 -43 -12
-90 -12 -75 0 -78 1 -100 31 l-23 31 -307 -4 -306 -5 -24 -26 c-19 -22 -35
-28 -91 -33 -71 -7 -71 -7 -157 -90 -16 -15 -37 -24 -58 -24 -22 0 -39 -8 -57
-29 -23 -25 -35 -29 -102 -35 -115 -9 -116 -8 -108 169 6 127 9 142 29 160 12
11 30 32 39 48 15 23 24 27 65 27 53 0 64 -5 81 -38 l12 -23 29 31 c15 16 33
30 39 30 6 0 11 7 11 15 0 9 14 24 30 33 17 9 33 25 36 35 3 9 10 17 15 17 5
0 25 16 45 35 32 32 39 35 94 35 58 0 60 1 74 34 8 19 22 39 33 45 16 9 14 14
-27 53 -25 23 -64 55 -87 70 -24 15 -43 34 -43 41 0 7 -11 24 -25 37 -14 13
-25 28 -25 33 0 5 -14 22 -31 38 -30 28 -31 31 -27 105 3 69 6 78 31 96 l27
20 0 226 c0 238 6 282 39 310 18 15 22 33 27 144 l7 127 42 45 c38 42 46 46
88 46 80 0 75 37 78 -660 3 -617 1 -660 -31 -660 -6 0 -10 -15 -10 -34 0 -34
2 -35 45 -42 83 -12 157 -1 198 30 39 30 40 46 4 46 -12 0 -40 20 -68 50 l-47
50 -7 165 c-4 91 -5 187 -1 213 3 26 6 233 7 460 l1 413 -26 20 c-14 11 -26
24 -26 28 0 10 148 161 158 161 5 0 21 -12 35 -27z m-678 -707 c14 -10 19 -26
19 -62 0 -27 0 -255 -2 -506 l-2 -457 -34 -37 c-18 -20 -41 -45 -50 -56 -13
-14 -27 -18 -59 -16 -35 2 -45 9 -62 35 -11 18 -27 35 -36 38 -9 3 -21 17 -28
32 -6 14 -23 34 -36 45 -32 25 -31 32 5 65 27 24 30 32 30 89 0 58 -2 64 -30
84 -29 20 -30 25 -30 95 0 71 1 75 30 97 29 21 30 25 30 94 0 64 3 75 24 91
22 17 24 28 31 153 7 134 7 135 38 166 18 17 38 39 45 48 16 20 90 22 117 2z
m665 -1428 c19 0 85 -2 145 -5 l110 -5 44 -44 c42 -43 45 -44 108 -44 73 0
110 -15 165 -69 50 -48 50 -65 1 -56 -21 3 -49 13 -61 22 -27 17 -97 38 -159
48 -23 4 -47 13 -54 21 -6 8 -30 14 -53 14 -53 1 -172 33 -195 54 -29 26 -69
20 -102 -15 -27 -28 -34 -31 -74 -27 -55 7 -75 22 -75 59 0 42 40 61 110 53
30 -4 71 -6 90 -6z m-292 -67 c11 -6 10 -15 -4 -45 -15 -31 -24 -37 -58 -43
-22 -3 -51 -17 -64 -30 -13 -13 -38 -30 -57 -37 -18 -8 -42 -23 -53 -34 -14
-14 -39 -20 -102 -25 -46 -4 -93 -13 -105 -21 -25 -16 -47 -6 -58 25 -5 16 28
39 56 39 7 0 31 9 52 21 22 11 64 27 93 35 70 19 169 69 182 93 13 26 90 40
118 22z m967 -185 c18 -13 18 -14 -3 -20 -23 -8 -62 8 -62 24 0 15 43 12 65
-4z m-235 -56 c25 -26 35 -30 83 -30 69 0 103 -12 110 -39 4 -17 13 -21 43
-21 53 0 74 -23 74 -80 0 -55 -9 -65 -67 -75 -28 -4 -47 -14 -58 -31 -8 -13
-22 -24 -30 -24 -8 0 -21 -13 -29 -29 -15 -28 -17 -28 -123 -35 -96 -7 -110
-10 -128 -31 -18 -22 -28 -24 -130 -26 -201 -4 -223 -2 -247 26 -17 19 -31 25
-63 25 -23 0 -70 3 -104 6 -55 6 -64 10 -77 35 -8 16 -21 29 -28 29 -8 0 -23
12 -33 26 -13 18 -31 27 -61 31 -27 4 -49 14 -60 28 -10 12 -27 27 -39 33 -43
24 -39 51 13 99 57 51 54 50 201 58 l111 6 19 -26 c10 -15 36 -45 58 -68 l40
-42 121 1 121 1 41 41 c35 35 42 49 42 80 0 54 13 62 98 62 69 0 76 -2 102
-30z m491 -171 c15 -21 17 -41 12 -154 l-6 -130 -57 -56 c-57 -56 -58 -57 -62
-124 -4 -61 -7 -70 -36 -94 -24 -19 -32 -34 -32 -58 0 -18 -7 -38 -16 -45 -8
-7 -24 -21 -34 -31 -10 -11 -22 -23 -28 -29 -5 -5 -17 -17 -26 -27 -10 -9 -38
-38 -63 -66 -46 -49 -48 -50 -115 -53 -58 -4 -70 -8 -80 -26 -17 -32 -27 -36
-107 -36 -100 0 -111 10 -111 103 0 66 1 71 35 101 26 24 35 41 35 65 0 24 8
40 30 59 29 26 30 28 30 122 0 52 4 100 8 106 21 33 96 84 124 84 20 0 39 10
58 30 22 24 36 30 69 30 35 0 43 4 51 24 5 13 18 27 29 31 11 3 26 18 33 33
10 20 24 29 56 35 30 6 55 20 83 48 21 21 39 43 39 48 0 13 42 42 54 38 5 -2
18 -14 27 -28z m-1585 -23 c124 -123 153 -146 184 -146 23 0 39 -9 58 -30 24
-27 32 -30 89 -30 61 0 63 -1 112 -49 32 -31 49 -56 45 -65 -6 -15 -54 -36
-82 -36 -8 0 -41 -27 -74 -60 -49 -50 -64 -60 -92 -60 -27 0 -39 -7 -56 -30
-26 -37 -79 -43 -87 -10 -3 12 -18 27 -34 36 -16 8 -29 21 -29 29 0 8 -17 32
-37 53 -31 32 -47 40 -91 46 -84 11 -139 -1 -155 -33 -16 -34 -50 -39 -71 -9
-13 18 -16 52 -16 179 0 177 2 181 77 194 28 4 47 14 57 30 30 46 153 41 202
-9z m-65 -423 c5 -13 20 -28 33 -33 14 -5 30 -18 36 -30 6 -11 20 -20 31 -20
13 0 25 -11 35 -35 8 -19 18 -35 22 -35 4 0 15 -14 24 -30 24 -43 70 -42 113
3 18 17 39 37 46 44 8 7 19 18 26 26 6 8 28 18 48 21 26 5 53 23 91 61 40 39
65 55 94 60 39 7 80 -7 80 -26 0 -6 14 -24 30 -39 17 -15 30 -33 30 -39 0 -6
-13 -20 -30 -33 -28 -20 -30 -26 -30 -90 0 -65 1 -68 30 -83 21 -11 31 -25 36
-51 7 -37 -8 -84 -26 -84 -5 0 -30 -20 -56 -44 -52 -50 -51 -71 1 -62 29 6 38
2 70 -29 33 -33 40 -36 88 -34 65 3 94 -6 102 -32 5 -15 16 -19 55 -19 44 0
51 -3 64 -29 8 -15 26 -36 40 -45 24 -15 26 -22 26 -87 0 -66 2 -73 30 -99 27
-26 30 -34 30 -94 0 -65 0 -65 -50 -116 l-51 -50 -405 0 -405 0 -34 33 c-19
17 -40 37 -48 44 -8 7 -17 17 -19 24 -3 8 -30 14 -74 17 -85 5 -104 19 -104
77 0 52 20 72 75 77 l40 3 5 53 c6 61 19 73 74 70 45 -3 60 17 23 31 -29 11
-37 29 -37 82 0 35 4 42 35 60 33 20 39 39 11 39 -22 0 -39 29 -45 73 -6 40
-8 42 -43 45 -31 3 -38 -1 -50 -25 -17 -36 -67 -40 -83 -6 -7 12 -24 32 -38
43 -25 20 -27 28 -27 91 0 70 0 70 -44 112 -25 23 -52 48 -60 55 -24 20 -19
40 14 57 17 9 30 20 30 25 0 5 22 32 49 59 54 54 75 58 92 14z"/>
<path d="M2869 3328 c0 -1 -2 -37 -4 -78 -4 -66 -7 -78 -29 -97 -15 -12 -26
-26 -26 -32 0 -19 -32 -41 -61 -41 -36 0 -37 -12 -3 -44 28 -25 51 -30 184
-41 142 -12 170 28 79 116 -71 68 -102 117 -108 168 -3 25 -12 46 -18 49 -7 2
-13 2 -14 0z"/>
</g>
</svg>
